<?xml version="1.0" encoding="utf-8" standalone="no"?>
<!DOCTYPE svg PUBLIC "-//W3C//DTD SVG 1.1//EN"
  "http://www.w3.org/Graphics/SVG/1.1/DTD/svg11.dtd">
<!-- Created with matplotlib (http://matplotlib.org/) -->
<svg height="144pt" version="1.1" viewBox="0 0 288 144" width="288pt" xmlns="http://www.w3.org/2000/svg" xmlns:xlink="http://www.w3.org/1999/xlink">
 <defs>
  <style type="text/css">
*{stroke-linecap:butt;stroke-linejoin:round;}
  </style>
 </defs>
 <g id="figure_1">
  <g id="patch_1">
   <path d="
M0 144
L288 144
L288 0
L0 0
z
" style="fill:none;"/>
  </g>
  <g id="axes_1">
   <g id="patch_2">
    <path d="
M42.3625 106.2
L268.481 106.2
L268.481 10.8
L42.3625 10.8
z
" style="fill:none;"/>
   </g>
   <g id="line2d_1">
    <defs>
     <path d="
M0 3
C0.795609 3 1.55874 2.6839 2.12132 2.12132
C2.6839 1.55874 3 0.795609 3 0
C3 -0.795609 2.6839 -1.55874 2.12132 -2.12132
C1.55874 -2.6839 0.795609 -3 0 -3
C-0.795609 -3 -1.55874 -2.6839 -2.12132 -2.12132
C-2.6839 -1.55874 -3 -0.795609 -3 0
C-3 0.795609 -2.6839 1.55874 -2.12132 2.12132
C-1.55874 2.6839 -0.795609 3 0 3
z
" id="mf1e9a9e4ae" style="stroke:#000000;stroke-width:0.5;"/>
    </defs>
    <g clip-path="url(#p78f12830df)">
     <use style="fill:#0000ff;stroke:#000000;stroke-width:0.5;" x="45.2005161749" xlink:href="#mf1e9a9e4ae" y="90.3"/>
     <use style="fill:#0000ff;stroke:#000000;stroke-width:0.5;" x="68.3309931583" xlink:href="#mf1e9a9e4ae" y="90.3"/>
     <use style="fill:#0000ff;stroke:#000000;stroke-width:0.5;" x="70.9491991611" xlink:href="#mf1e9a9e4ae" y="90.3"/>
     <use style="fill:#0000ff;stroke:#000000;stroke-width:0.5;" x="99.3103018789" xlink:href="#mf1e9a9e4ae" y="90.3"/>
     <use style="fill:#0000ff;stroke:#000000;stroke-width:0.5;" x="106.887926495" xlink:href="#mf1e9a9e4ae" y="90.3"/>
     <use style="fill:#0000ff;stroke:#000000;stroke-width:0.5;" x="117.584361017" xlink:href="#mf1e9a9e4ae" y="90.3"/>
     <use style="fill:#0000ff;stroke:#000000;stroke-width:0.5;" x="134.001039766" xlink:href="#mf1e9a9e4ae" y="90.3"/>
     <use style="fill:#0000ff;stroke:#000000;stroke-width:0.5;" x="142.262047887" xlink:href="#mf1e9a9e4ae" y="90.3"/>
     <use style="fill:#0000ff;stroke:#000000;stroke-width:0.5;" x="146.243034067" xlink:href="#mf1e9a9e4ae" y="90.3"/>
     <use style="fill:#0000ff;stroke:#000000;stroke-width:0.5;" x="148.593670563" xlink:href="#mf1e9a9e4ae" y="90.3"/>
     <use style="fill:#0000ff;stroke:#000000;stroke-width:0.5;" x="149.545490993" xlink:href="#mf1e9a9e4ae" y="90.3"/>
     <use style="fill:#0000ff;stroke:#000000;stroke-width:0.5;" x="164.707801339" xlink:href="#mf1e9a9e4ae" y="90.3"/>
     <use style="fill:#0000ff;stroke:#000000;stroke-width:0.5;" x="171.289656083" xlink:href="#mf1e9a9e4ae" y="90.3"/>
     <use style="fill:#0000ff;stroke:#000000;stroke-width:0.5;" x="173.238159186" xlink:href="#mf1e9a9e4ae" y="90.3"/>
     <use style="fill:#0000ff;stroke:#000000;stroke-width:0.5;" x="197.203795088" xlink:href="#mf1e9a9e4ae" y="90.3"/>
     <use style="fill:#0000ff;stroke:#000000;stroke-width:0.5;" x="200.825362337" xlink:href="#mf1e9a9e4ae" y="90.3"/>
     <use style="fill:#0000ff;stroke:#000000;stroke-width:0.5;" x="206.872191807" xlink:href="#mf1e9a9e4ae" y="90.3"/>
     <use style="fill:#0000ff;stroke:#000000;stroke-width:0.5;" x="210.841598719" xlink:href="#mf1e9a9e4ae" y="90.3"/>
     <use style="fill:#0000ff;stroke:#000000;stroke-width:0.5;" x="222.045575945" xlink:href="#mf1e9a9e4ae" y="90.3"/>
     <use style="fill:#0000ff;stroke:#000000;stroke-width:0.5;" x="231.849118016" xlink:href="#mf1e9a9e4ae" y="90.3"/>
     <use style="fill:#0000ff;stroke:#000000;stroke-width:0.5;" x="242.206642694" xlink:href="#mf1e9a9e4ae" y="90.3"/>
     <use style="fill:#0000ff;stroke:#000000;stroke-width:0.5;" x="245.70017565" xlink:href="#mf1e9a9e4ae" y="90.3"/>
     <use style="fill:#0000ff;stroke:#000000;stroke-width:0.5;" x="249.488043517" xlink:href="#mf1e9a9e4ae" y="90.3"/>
     <use style="fill:#0000ff;stroke:#000000;stroke-width:0.5;" x="252.794779562" xlink:href="#mf1e9a9e4ae" y="90.3"/>
     <use style="fill:#0000ff;stroke:#000000;stroke-width:0.5;" x="257.281521204" xlink:href="#mf1e9a9e4ae" y="90.3"/>
     <use style="fill:#0000ff;stroke:#000000;stroke-width:0.5;" x="259.041594068" xlink:href="#mf1e9a9e4ae" y="90.3"/>
     <use style="fill:#0000ff;stroke:#000000;stroke-width:0.5;" x="261.088622115" xlink:href="#mf1e9a9e4ae" y="90.3"/>
     <use style="fill:#0000ff;stroke:#000000;stroke-width:0.5;" x="298.650433829" xlink:href="#mf1e9a9e4ae" y="90.3"/>
    </g>
   </g>
   <g id="line2d_2">
    <defs>
     <path d="
M0 3
C0.795609 3 1.55874 2.6839 2.12132 2.12132
C2.6839 1.55874 3 0.795609 3 0
C3 -0.795609 2.6839 -1.55874 2.12132 -2.12132
C1.55874 -2.6839 0.795609 -3 0 -3
C-0.795609 -3 -1.55874 -2.6839 -2.12132 -2.12132
C-2.6839 -1.55874 -3 -0.795609 -3 0
C-3 0.795609 -2.6839 1.55874 -2.12132 2.12132
C-1.55874 2.6839 -0.795609 3 0 3
z
" id="mbbe02196b1" style="stroke:#000000;stroke-width:0.5;"/>
    </defs>
    <g clip-path="url(#p78f12830df)">
     <use style="fill:#008000;stroke:#000000;stroke-width:0.5;" x="58.9973616992" xlink:href="#mbbe02196b1" y="58.5"/>
     <use style="fill:#008000;stroke:#000000;stroke-width:0.5;" x="73.8607007647" xlink:href="#mbbe02196b1" y="58.5"/>
     <use style="fill:#008000;stroke:#000000;stroke-width:0.5;" x="93.6008602708" xlink:href="#mbbe02196b1" y="58.5"/>
     <use style="fill:#008000;stroke:#000000;stroke-width:0.5;" x="114.513952739" xlink:href="#mbbe02196b1" y="58.5"/>
     <use style="fill:#008000;stroke:#000000;stroke-width:0.5;" x="130.711727199" xlink:href="#mbbe02196b1" y="58.5"/>
     <use style="fill:#008000;stroke:#000000;stroke-width:0.5;" x="136.320396077" xlink:href="#mbbe02196b1" y="58.5"/>
     <use style="fill:#008000;stroke:#000000;stroke-width:0.5;" x="159.570061495" xlink:href="#mbbe02196b1" y="58.5"/>
     <use style="fill:#008000;stroke:#000000;stroke-width:0.5;" x="164.743374036" xlink:href="#mbbe02196b1" y="58.5"/>
     <use style="fill:#008000;stroke:#000000;stroke-width:0.5;" x="244.681756222" xlink:href="#mbbe02196b1" y="58.5"/>
     <use style="fill:#008000;stroke:#000000;stroke-width:0.5;" x="322.600542738" xlink:href="#mbbe02196b1" y="58.5"/>
    </g>
   </g>
   <g id="line2d_3">
    <defs>
     <path d="
M0 3
C0.795609 3 1.55874 2.6839 2.12132 2.12132
C2.6839 1.55874 3 0.795609 3 0
C3 -0.795609 2.6839 -1.55874 2.12132 -2.12132
C1.55874 -2.6839 0.795609 -3 0 -3
C-0.795609 -3 -1.55874 -2.6839 -2.12132 -2.12132
C-2.6839 -1.55874 -3 -0.795609 -3 0
C-3 0.795609 -2.6839 1.55874 -2.12132 2.12132
C-1.55874 2.6839 -0.795609 3 0 3
z
" id="md175be6dbf" style="stroke:#000000;stroke-width:0.5;"/>
    </defs>
    <g clip-path="url(#p78f12830df)">
     <use style="fill:#ff0000;stroke:#000000;stroke-width:0.5;" x="47.1051728231" xlink:href="#md175be6dbf" y="26.7"/>
     <use style="fill:#ff0000;stroke:#000000;stroke-width:0.5;" x="48.0224343329" xlink:href="#md175be6dbf" y="26.7"/>
     <use style="fill:#ff0000;stroke:#000000;stroke-width:0.5;" x="49.0464054435" xlink:href="#md175be6dbf" y="26.7"/>
     <use style="fill:#ff0000;stroke:#000000;stroke-width:0.5;" x="49.8443017249" xlink:href="#md175be6dbf" y="26.7"/>
     <use style="fill:#ff0000;stroke:#000000;stroke-width:0.5;" x="52.7150185405" xlink:href="#md175be6dbf" y="26.7"/>
     <use style="fill:#ff0000;stroke:#000000;stroke-width:0.5;" x="53.6990129401" xlink:href="#md175be6dbf" y="26.7"/>
     <use style="fill:#ff0000;stroke:#000000;stroke-width:0.5;" x="55.4315622415" xlink:href="#md175be6dbf" y="26.7"/>
     <use style="fill:#ff0000;stroke:#000000;stroke-width:0.5;" x="57.0453768626" xlink:href="#md175be6dbf" y="26.7"/>
     <use style="fill:#ff0000;stroke:#000000;stroke-width:0.5;" x="67.2965739775" xlink:href="#md175be6dbf" y="26.7"/>
     <use style="fill:#ff0000;stroke:#000000;stroke-width:0.5;" x="69.7851202752" xlink:href="#md175be6dbf" y="26.7"/>
     <use style="fill:#ff0000;stroke:#000000;stroke-width:0.5;" x="71.2846236945" xlink:href="#md175be6dbf" y="26.7"/>
     <use style="fill:#ff0000;stroke:#000000;stroke-width:0.5;" x="76.2485313601" xlink:href="#md175be6dbf" y="26.7"/>
     <use style="fill:#ff0000;stroke:#000000;stroke-width:0.5;" x="82.2952658269" xlink:href="#md175be6dbf" y="26.7"/>
     <use style="fill:#ff0000;stroke:#000000;stroke-width:0.5;" x="83.7239651261" xlink:href="#md175be6dbf" y="26.7"/>
     <use style="fill:#ff0000;stroke:#000000;stroke-width:0.5;" x="83.7315196575" xlink:href="#md175be6dbf" y="26.7"/>
     <use style="fill:#ff0000;stroke:#000000;stroke-width:0.5;" x="90.9124249375" xlink:href="#md175be6dbf" y="26.7"/>
     <use style="fill:#ff0000;stroke:#000000;stroke-width:0.5;" x="93.3951423336" xlink:href="#md175be6dbf" y="26.7"/>
     <use style="fill:#ff0000;stroke:#000000;stroke-width:0.5;" x="94.4893480645" xlink:href="#md175be6dbf" y="26.7"/>
     <use style="fill:#ff0000;stroke:#000000;stroke-width:0.5;" x="95.2461259101" xlink:href="#md175be6dbf" y="26.7"/>
     <use style="fill:#ff0000;stroke:#000000;stroke-width:0.5;" x="97.302181621" xlink:href="#md175be6dbf" y="26.7"/>
     <use style="fill:#ff0000;stroke:#000000;stroke-width:0.5;" x="106.838256835" xlink:href="#md175be6dbf" y="26.7"/>
     <use style="fill:#ff0000;stroke:#000000;stroke-width:0.5;" x="108.726187821" xlink:href="#md175be6dbf" y="26.7"/>
     <use style="fill:#ff0000;stroke:#000000;stroke-width:0.5;" x="109.689049845" xlink:href="#md175be6dbf" y="26.7"/>
     <use style="fill:#ff0000;stroke:#000000;stroke-width:0.5;" x="112.331100603" xlink:href="#md175be6dbf" y="26.7"/>
     <use style="fill:#ff0000;stroke:#000000;stroke-width:0.5;" x="115.959221815" xlink:href="#md175be6dbf" y="26.7"/>
     <use style="fill:#ff0000;stroke:#000000;stroke-width:0.5;" x="119.471652961" xlink:href="#md175be6dbf" y="26.7"/>
     <use style="fill:#ff0000;stroke:#000000;stroke-width:0.5;" x="130.227592674" xlink:href="#md175be6dbf" y="26.7"/>
     <use style="fill:#ff0000;stroke:#000000;stroke-width:0.5;" x="131.507272638" xlink:href="#md175be6dbf" y="26.7"/>
     <use style="fill:#ff0000;stroke:#000000;stroke-width:0.5;" x="132.216824568" xlink:href="#md175be6dbf" y="26.7"/>
     <use style="fill:#ff0000;stroke:#000000;stroke-width:0.5;" x="135.059439245" xlink:href="#md175be6dbf" y="26.7"/>
     <use style="fill:#ff0000;stroke:#000000;stroke-width:0.5;" x="143.338756665" xlink:href="#md175be6dbf" y="26.7"/>
     <use style="fill:#ff0000;stroke:#000000;stroke-width:0.5;" x="157.586924865" xlink:href="#md175be6dbf" y="26.7"/>
     <use style="fill:#ff0000;stroke:#000000;stroke-width:0.5;" x="170.619443214" xlink:href="#md175be6dbf" y="26.7"/>
     <use style="fill:#ff0000;stroke:#000000;stroke-width:0.5;" x="172.52067028" xlink:href="#md175be6dbf" y="26.7"/>
     <use style="fill:#ff0000;stroke:#000000;stroke-width:0.5;" x="172.777489546" xlink:href="#md175be6dbf" y="26.7"/>
     <use style="fill:#ff0000;stroke:#000000;stroke-width:0.5;" x="173.311184761" xlink:href="#md175be6dbf" y="26.7"/>
     <use style="fill:#ff0000;stroke:#000000;stroke-width:0.5;" x="173.677181275" xlink:href="#md175be6dbf" y="26.7"/>
     <use style="fill:#ff0000;stroke:#000000;stroke-width:0.5;" x="173.742505472" xlink:href="#md175be6dbf" y="26.7"/>
     <use style="fill:#ff0000;stroke:#000000;stroke-width:0.5;" x="173.96455486" xlink:href="#md175be6dbf" y="26.7"/>
     <use style="fill:#ff0000;stroke:#000000;stroke-width:0.5;" x="177.202592519" xlink:href="#md175be6dbf" y="26.7"/>
     <use style="fill:#ff0000;stroke:#000000;stroke-width:0.5;" x="184.620599036" xlink:href="#md175be6dbf" y="26.7"/>
     <use style="fill:#ff0000;stroke:#000000;stroke-width:0.5;" x="189.314686558" xlink:href="#md175be6dbf" y="26.7"/>
     <use style="fill:#ff0000;stroke:#000000;stroke-width:0.5;" x="194.005332718" xlink:href="#md175be6dbf" y="26.7"/>
     <use style="fill:#ff0000;stroke:#000000;stroke-width:0.5;" x="212.011638427" xlink:href="#md175be6dbf" y="26.7"/>
     <use style="fill:#ff0000;stroke:#000000;stroke-width:0.5;" x="212.910203921" xlink:href="#md175be6dbf" y="26.7"/>
     <use style="fill:#ff0000;stroke:#000000;stroke-width:0.5;" x="216.057649198" xlink:href="#md175be6dbf" y="26.7"/>
     <use style="fill:#ff0000;stroke:#000000;stroke-width:0.5;" x="216.877705666" xlink:href="#md175be6dbf" y="26.7"/>
     <use style="fill:#ff0000;stroke:#000000;stroke-width:0.5;" x="226.593390281" xlink:href="#md175be6dbf" y="26.7"/>
     <use style="fill:#ff0000;stroke:#000000;stroke-width:0.5;" x="233.510035255" xlink:href="#md175be6dbf" y="26.7"/>
     <use style="fill:#ff0000;stroke:#000000;stroke-width:0.5;" x="238.561718509" xlink:href="#md175be6dbf" y="26.7"/>
     <use style="fill:#ff0000;stroke:#000000;stroke-width:0.5;" x="239.30920234" xlink:href="#md175be6dbf" y="26.7"/>
     <use style="fill:#ff0000;stroke:#000000;stroke-width:0.5;" x="239.739783351" xlink:href="#md175be6dbf" y="26.7"/>
     <use style="fill:#ff0000;stroke:#000000;stroke-width:0.5;" x="240.93762973" xlink:href="#md175be6dbf" y="26.7"/>
     <use style="fill:#ff0000;stroke:#000000;stroke-width:0.5;" x="241.367817331" xlink:href="#md175be6dbf" y="26.7"/>
     <use style="fill:#ff0000;stroke:#000000;stroke-width:0.5;" x="245.214098973" xlink:href="#md175be6dbf" y="26.7"/>
     <use style="fill:#ff0000;stroke:#000000;stroke-width:0.5;" x="262.300304466" xlink:href="#md175be6dbf" y="26.7"/>
     <use style="fill:#ff0000;stroke:#000000;stroke-width:0.5;" x="262.87780143" xlink:href="#md175be6dbf" y="26.7"/>
     <use style="fill:#ff0000;stroke:#000000;stroke-width:0.5;" x="265.403327126" xlink:href="#md175be6dbf" y="26.7"/>
     <use style="fill:#ff0000;stroke:#000000;stroke-width:0.5;" x="268.097773225" xlink:href="#md175be6dbf" y="26.7"/>
     <use style="fill:#ff0000;stroke:#000000;stroke-width:0.5;" x="272.816427395" xlink:href="#md175be6dbf" y="26.7"/>
    </g>
   </g>
   <g id="patch_3">
    <path d="
M42.3625 10.8
L268.481 10.8" style="fill:none;stroke:#000000;stroke-linecap:square;stroke-linejoin:miter;"/>
   </g>
   <g id="patch_4">
    <path d="
M268.481 106.2
L268.481 10.8" style="fill:none;stroke:#000000;stroke-linecap:square;stroke-linejoin:miter;"/>
   </g>
   <g id="patch_5">
    <path d="
M42.3625 106.2
L268.481 106.2" style="fill:none;stroke:#000000;stroke-linecap:square;stroke-linejoin:miter;"/>
   </g>
   <g id="patch_6">
    <path d="
M42.3625 106.2
L42.3625 10.8" style="fill:none;stroke:#000000;stroke-linecap:square;stroke-linejoin:miter;"/>
   </g>
   <g id="matplotlib.axis_1">
    <g id="xtick_1">
     <g id="line2d_4">
      <defs>
       <path d="
M0 0
L0 -4" id="m93b0483c22" style="stroke:#000000;stroke-width:0.5;"/>
      </defs>
      <g>
       <use style="stroke:#000000;stroke-width:0.5;" x="42.3625" xlink:href="#m93b0483c22" y="106.2"/>
      </g>
     </g>
     <g id="line2d_5">
      <defs>
       <path d="
M0 0
L0 4" id="m741efc42ff" style="stroke:#000000;stroke-width:0.5;"/>
      </defs>
      <g>
       <use style="stroke:#000000;stroke-width:0.5;" x="42.3625" xlink:href="#m741efc42ff" y="10.8"/>
      </g>
     </g>
     <g id="text_1">
      <!-- 0 -->
      <defs>
       <path d="
M31.7812 66.4062
Q24.1719 66.4062 20.3281 58.9062
Q16.5 51.4219 16.5 36.375
Q16.5 21.3906 20.3281 13.8906
Q24.1719 6.39062 31.7812 6.39062
Q39.4531 6.39062 43.2812 13.8906
Q47.125 21.3906 47.125 36.375
Q47.125 51.4219 43.2812 58.9062
Q39.4531 66.4062 31.7812 66.4062
M31.7812 74.2188
Q44.0469 74.2188 50.5156 64.5156
Q56.9844 54.8281 56.9844 36.375
Q56.9844 17.9688 50.5156 8.26562
Q44.0469 -1.42188 31.7812 -1.42188
Q19.5312 -1.42188 13.0625 8.26562
Q6.59375 17.9688 6.59375 36.375
Q6.59375 54.8281 13.0625 64.5156
Q19.5312 74.2188 31.7812 74.2188" id="BitstreamVeraSans-Roman-30"/>
      </defs>
      <g transform="translate(39.84296875 117.7984375)scale(0.1 -0.1)">
       <use xlink:href="#BitstreamVeraSans-Roman-30"/>
      </g>
     </g>
    </g>
    <g id="xtick_2">
     <g id="line2d_6">
      <g>
       <use style="stroke:#000000;stroke-width:0.5;" x="87.58625" xlink:href="#m93b0483c22" y="106.2"/>
      </g>
     </g>
     <g id="line2d_7">
      <g>
       <use style="stroke:#000000;stroke-width:0.5;" x="87.58625" xlink:href="#m741efc42ff" y="10.8"/>
      </g>
     </g>
     <g id="text_2">
      <!-- 20 -->
      <defs>
       <path d="
M19.1875 8.29688
L53.6094 8.29688
L53.6094 0
L7.32812 0
L7.32812 8.29688
Q12.9375 14.1094 22.625 23.8906
Q32.3281 33.6875 34.8125 36.5312
Q39.5469 41.8438 41.4219 45.5312
Q43.3125 49.2188 43.3125 52.7812
Q43.3125 58.5938 39.2344 62.25
Q35.1562 65.9219 28.6094 65.9219
Q23.9688 65.9219 18.8125 64.3125
Q13.6719 62.7031 7.8125 59.4219
L7.8125 69.3906
Q13.7656 71.7812 18.9375 73
Q24.125 74.2188 28.4219 74.2188
Q39.75 74.2188 46.4844 68.5469
Q53.2188 62.8906 53.2188 53.4219
Q53.2188 48.9219 51.5312 44.8906
Q49.8594 40.875 45.4062 35.4062
Q44.1875 33.9844 37.6406 27.2188
Q31.1094 20.4531 19.1875 8.29688" id="BitstreamVeraSans-Roman-32"/>
      </defs>
      <g transform="translate(81.9221875 117.7984375)scale(0.1 -0.1)">
       <use xlink:href="#BitstreamVeraSans-Roman-32"/>
       <use x="63.623046875" xlink:href="#BitstreamVeraSans-Roman-30"/>
      </g>
     </g>
    </g>
    <g id="xtick_3">
     <g id="line2d_8">
      <g>
       <use style="stroke:#000000;stroke-width:0.5;" x="132.81" xlink:href="#m93b0483c22" y="106.2"/>
      </g>
     </g>
     <g id="line2d_9">
      <g>
       <use style="stroke:#000000;stroke-width:0.5;" x="132.81" xlink:href="#m741efc42ff" y="10.8"/>
      </g>
     </g>
     <g id="text_3">
      <!-- 40 -->
      <defs>
       <path d="
M37.7969 64.3125
L12.8906 25.3906
L37.7969 25.3906
z

M35.2031 72.9062
L47.6094 72.9062
L47.6094 25.3906
L58.0156 25.3906
L58.0156 17.1875
L47.6094 17.1875
L47.6094 0
L37.7969 0
L37.7969 17.1875
L4.89062 17.1875
L4.89062 26.7031
z
" id="BitstreamVeraSans-Roman-34"/>
      </defs>
      <g transform="translate(127.0240625 117.7984375)scale(0.1 -0.1)">
       <use xlink:href="#BitstreamVeraSans-Roman-34"/>
       <use x="63.623046875" xlink:href="#BitstreamVeraSans-Roman-30"/>
      </g>
     </g>
    </g>
    <g id="xtick_4">
     <g id="line2d_10">
      <g>
       <use style="stroke:#000000;stroke-width:0.5;" x="178.03375" xlink:href="#m93b0483c22" y="106.2"/>
      </g>
     </g>
     <g id="line2d_11">
      <g>
       <use style="stroke:#000000;stroke-width:0.5;" x="178.03375" xlink:href="#m741efc42ff" y="10.8"/>
      </g>
     </g>
     <g id="text_4">
      <!-- 60 -->
      <defs>
       <path d="
M33.0156 40.375
Q26.375 40.375 22.4844 35.8281
Q18.6094 31.2969 18.6094 23.3906
Q18.6094 15.5312 22.4844 10.9531
Q26.375 6.39062 33.0156 6.39062
Q39.6562 6.39062 43.5312 10.9531
Q47.4062 15.5312 47.4062 23.3906
Q47.4062 31.2969 43.5312 35.8281
Q39.6562 40.375 33.0156 40.375
M52.5938 71.2969
L52.5938 62.3125
Q48.875 64.0625 45.0938 64.9844
Q41.3125 65.9219 37.5938 65.9219
Q27.8281 65.9219 22.6719 59.3281
Q17.5312 52.7344 16.7969 39.4062
Q19.6719 43.6562 24.0156 45.9219
Q28.375 48.1875 33.5938 48.1875
Q44.5781 48.1875 50.9531 41.5156
Q57.3281 34.8594 57.3281 23.3906
Q57.3281 12.1562 50.6875 5.35938
Q44.0469 -1.42188 33.0156 -1.42188
Q20.3594 -1.42188 13.6719 8.26562
Q6.98438 17.9688 6.98438 36.375
Q6.98438 53.6562 15.1875 63.9375
Q23.3906 74.2188 37.2031 74.2188
Q40.9219 74.2188 44.7031 73.4844
Q48.4844 72.75 52.5938 71.2969" id="BitstreamVeraSans-Roman-36"/>
      </defs>
      <g transform="translate(172.3525 117.7984375)scale(0.1 -0.1)">
       <use xlink:href="#BitstreamVeraSans-Roman-36"/>
       <use x="63.623046875" xlink:href="#BitstreamVeraSans-Roman-30"/>
      </g>
     </g>
    </g>
    <g id="xtick_5">
     <g id="line2d_12">
      <g>
       <use style="stroke:#000000;stroke-width:0.5;" x="223.2575" xlink:href="#m93b0483c22" y="106.2"/>
      </g>
     </g>
     <g id="line2d_13">
      <g>
       <use style="stroke:#000000;stroke-width:0.5;" x="223.2575" xlink:href="#m741efc42ff" y="10.8"/>
      </g>
     </g>
     <g id="text_5">
      <!-- 80 -->
      <defs>
       <path d="
M31.7812 34.625
Q24.75 34.625 20.7188 30.8594
Q16.7031 27.0938 16.7031 20.5156
Q16.7031 13.9219 20.7188 10.1562
Q24.75 6.39062 31.7812 6.39062
Q38.8125 6.39062 42.8594 10.1719
Q46.9219 13.9688 46.9219 20.5156
Q46.9219 27.0938 42.8906 30.8594
Q38.875 34.625 31.7812 34.625
M21.9219 38.8125
Q15.5781 40.375 12.0312 44.7188
Q8.5 49.0781 8.5 55.3281
Q8.5 64.0625 14.7188 69.1406
Q20.9531 74.2188 31.7812 74.2188
Q42.6719 74.2188 48.875 69.1406
Q55.0781 64.0625 55.0781 55.3281
Q55.0781 49.0781 51.5312 44.7188
Q48 40.375 41.7031 38.8125
Q48.8281 37.1562 52.7969 32.3125
Q56.7812 27.4844 56.7812 20.5156
Q56.7812 9.90625 50.3125 4.23438
Q43.8438 -1.42188 31.7812 -1.42188
Q19.7344 -1.42188 13.25 4.23438
Q6.78125 9.90625 6.78125 20.5156
Q6.78125 27.4844 10.7812 32.3125
Q14.7969 37.1562 21.9219 38.8125
M18.3125 54.3906
Q18.3125 48.7344 21.8438 45.5625
Q25.3906 42.3906 31.7812 42.3906
Q38.1406 42.3906 41.7188 45.5625
Q45.3125 48.7344 45.3125 54.3906
Q45.3125 60.0625 41.7188 63.2344
Q38.1406 66.4062 31.7812 66.4062
Q25.3906 66.4062 21.8438 63.2344
Q18.3125 60.0625 18.3125 54.3906" id="BitstreamVeraSans-Roman-38"/>
      </defs>
      <g transform="translate(217.56609375 117.7984375)scale(0.1 -0.1)">
       <use xlink:href="#BitstreamVeraSans-Roman-38"/>
       <use x="63.623046875" xlink:href="#BitstreamVeraSans-Roman-30"/>
      </g>
     </g>
    </g>
    <g id="xtick_6">
     <g id="line2d_14">
      <g>
       <use style="stroke:#000000;stroke-width:0.5;" x="268.48125" xlink:href="#m93b0483c22" y="106.2"/>
      </g>
     </g>
     <g id="line2d_15">
      <g>
       <use style="stroke:#000000;stroke-width:0.5;" x="268.48125" xlink:href="#m741efc42ff" y="10.8"/>
      </g>
     </g>
     <g id="text_6">
      <!-- 100 -->
      <defs>
       <path d="
M12.4062 8.29688
L28.5156 8.29688
L28.5156 63.9219
L10.9844 60.4062
L10.9844 69.3906
L28.4219 72.9062
L38.2812 72.9062
L38.2812 8.29688
L54.3906 8.29688
L54.3906 0
L12.4062 0
z
" id="BitstreamVeraSans-Roman-31"/>
      </defs>
      <g transform="translate(259.81875 117.7984375)scale(0.1 -0.1)">
       <use xlink:href="#BitstreamVeraSans-Roman-31"/>
       <use x="63.623046875" xlink:href="#BitstreamVeraSans-Roman-30"/>
       <use x="127.24609375" xlink:href="#BitstreamVeraSans-Roman-30"/>
      </g>
     </g>
    </g>
    <g id="text_7">
     <!-- time -->
     <defs>
      <path d="
M56.2031 29.5938
L56.2031 25.2031
L14.8906 25.2031
Q15.4844 15.9219 20.4844 11.0625
Q25.4844 6.20312 34.4219 6.20312
Q39.5938 6.20312 44.4531 7.46875
Q49.3125 8.73438 54.1094 11.2812
L54.1094 2.78125
Q49.2656 0.734375 44.1875 -0.34375
Q39.1094 -1.42188 33.8906 -1.42188
Q20.7969 -1.42188 13.1562 6.1875
Q5.51562 13.8125 5.51562 26.8125
Q5.51562 40.2344 12.7656 48.1094
Q20.0156 56 32.3281 56
Q43.3594 56 49.7812 48.8906
Q56.2031 41.7969 56.2031 29.5938
M47.2188 32.2344
Q47.125 39.5938 43.0938 43.9844
Q39.0625 48.3906 32.4219 48.3906
Q24.9062 48.3906 20.3906 44.1406
Q15.875 39.8906 15.1875 32.1719
z
" id="BitstreamVeraSans-Roman-65"/>
      <path d="
M52 44.1875
Q55.375 50.25 60.0625 53.125
Q64.75 56 71.0938 56
Q79.6406 56 84.2812 50.0156
Q88.9219 44.0469 88.9219 33.0156
L88.9219 0
L79.8906 0
L79.8906 32.7188
Q79.8906 40.5781 77.0938 44.375
Q74.3125 48.1875 68.6094 48.1875
Q61.625 48.1875 57.5625 43.5469
Q53.5156 38.9219 53.5156 30.9062
L53.5156 0
L44.4844 0
L44.4844 32.7188
Q44.4844 40.625 41.7031 44.4062
Q38.9219 48.1875 33.1094 48.1875
Q26.2188 48.1875 22.1562 43.5312
Q18.1094 38.875 18.1094 30.9062
L18.1094 0
L9.07812 0
L9.07812 54.6875
L18.1094 54.6875
L18.1094 46.1875
Q21.1875 51.2188 25.4844 53.6094
Q29.7812 56 35.6875 56
Q41.6562 56 45.8281 52.9688
Q50 49.9531 52 44.1875" id="BitstreamVeraSans-Roman-6d"/>
      <path d="
M18.3125 70.2188
L18.3125 54.6875
L36.8125 54.6875
L36.8125 47.7031
L18.3125 47.7031
L18.3125 18.0156
Q18.3125 11.3281 20.1406 9.42188
Q21.9688 7.51562 27.5938 7.51562
L36.8125 7.51562
L36.8125 0
L27.5938 0
Q17.1875 0 13.2344 3.875
Q9.28125 7.76562 9.28125 18.0156
L9.28125 47.7031
L2.6875 47.7031
L2.6875 54.6875
L9.28125 54.6875
L9.28125 70.2188
z
" id="BitstreamVeraSans-Roman-74"/>
      <path d="
M9.42188 54.6875
L18.4062 54.6875
L18.4062 0
L9.42188 0
z

M9.42188 75.9844
L18.4062 75.9844
L18.4062 64.5938
L9.42188 64.5938
z
" id="BitstreamVeraSans-Roman-69"/>
     </defs>
     <g transform="translate(144.5265625 132.4765625)scale(0.1 -0.1)">
      <use xlink:href="#BitstreamVeraSans-Roman-74"/>
      <use x="39.208984375" xlink:href="#BitstreamVeraSans-Roman-69"/>
      <use x="66.9921875" xlink:href="#BitstreamVeraSans-Roman-6d"/>
      <use x="164.404296875" xlink:href="#BitstreamVeraSans-Roman-65"/>
     </g>
    </g>
   </g>
   <g id="matplotlib.axis_2">
    <g id="ytick_1">
     <g id="line2d_16">
      <defs>
       <path d="
M0 0
L4 0" id="m728421d6d4" style="stroke:#000000;stroke-width:0.5;"/>
      </defs>
      <g>
       <use style="stroke:#000000;stroke-width:0.5;" x="42.3625" xlink:href="#m728421d6d4" y="90.3"/>
      </g>
     </g>
     <g id="line2d_17">
      <defs>
       <path d="
M0 0
L-4 0" id="mcb0005524f" style="stroke:#000000;stroke-width:0.5;"/>
      </defs>
      <g>
       <use style="stroke:#000000;stroke-width:0.5;" x="268.48125" xlink:href="#mcb0005524f" y="90.3"/>
      </g>
     </g>
     <g id="text_8">
      <!-- blue -->
      <defs>
       <path d="
M8.5 21.5781
L8.5 54.6875
L17.4844 54.6875
L17.4844 21.9219
Q17.4844 14.1562 20.5 10.2656
Q23.5312 6.39062 29.5938 6.39062
Q36.8594 6.39062 41.0781 11.0312
Q45.3125 15.6719 45.3125 23.6875
L45.3125 54.6875
L54.2969 54.6875
L54.2969 0
L45.3125 0
L45.3125 8.40625
Q42.0469 3.42188 37.7188 1
Q33.4062 -1.42188 27.6875 -1.42188
Q18.2656 -1.42188 13.375 4.4375
Q8.5 10.2969 8.5 21.5781" id="BitstreamVeraSans-Roman-75"/>
       <path d="
M9.42188 75.9844
L18.4062 75.9844
L18.4062 0
L9.42188 0
z
" id="BitstreamVeraSans-Roman-6c"/>
       <path d="
M48.6875 27.2969
Q48.6875 37.2031 44.6094 42.8438
Q40.5312 48.4844 33.4062 48.4844
Q26.2656 48.4844 22.1875 42.8438
Q18.1094 37.2031 18.1094 27.2969
Q18.1094 17.3906 22.1875 11.75
Q26.2656 6.10938 33.4062 6.10938
Q40.5312 6.10938 44.6094 11.75
Q48.6875 17.3906 48.6875 27.2969
M18.1094 46.3906
Q20.9531 51.2656 25.2656 53.625
Q29.5938 56 35.5938 56
Q45.5625 56 51.7812 48.0938
Q58.0156 40.1875 58.0156 27.2969
Q58.0156 14.4062 51.7812 6.48438
Q45.5625 -1.42188 35.5938 -1.42188
Q29.5938 -1.42188 25.2656 0.953125
Q20.9531 3.32812 18.1094 8.20312
L18.1094 0
L9.07812 0
L9.07812 75.9844
L18.1094 75.9844
z
" id="BitstreamVeraSans-Roman-62"/>
      </defs>
      <g transform="translate(18.1859375 93.059375)scale(0.1 -0.1)">
       <use xlink:href="#BitstreamVeraSans-Roman-62"/>
       <use x="63.4765625" xlink:href="#BitstreamVeraSans-Roman-6c"/>
       <use x="91.259765625" xlink:href="#BitstreamVeraSans-Roman-75"/>
       <use x="154.638671875" xlink:href="#BitstreamVeraSans-Roman-65"/>
      </g>
     </g>
    </g>
    <g id="ytick_2">
     <g id="line2d_18">
      <g>
       <use style="stroke:#000000;stroke-width:0.5;" x="42.3625" xlink:href="#m728421d6d4" y="58.5"/>
      </g>
     </g>
     <g id="line2d_19">
      <g>
       <use style="stroke:#000000;stroke-width:0.5;" x="268.48125" xlink:href="#mcb0005524f" y="58.5"/>
      </g>
     </g>
     <g id="text_9">
      <!-- green -->
      <defs>
       <path d="
M54.8906 33.0156
L54.8906 0
L45.9062 0
L45.9062 32.7188
Q45.9062 40.4844 42.875 44.3281
Q39.8438 48.1875 33.7969 48.1875
Q26.5156 48.1875 22.3125 43.5469
Q18.1094 38.9219 18.1094 30.9062
L18.1094 0
L9.07812 0
L9.07812 54.6875
L18.1094 54.6875
L18.1094 46.1875
Q21.3438 51.125 25.7031 53.5625
Q30.0781 56 35.7969 56
Q45.2188 56 50.0469 50.1719
Q54.8906 44.3438 54.8906 33.0156" id="BitstreamVeraSans-Roman-6e"/>
       <path d="
M45.4062 27.9844
Q45.4062 37.75 41.375 43.1094
Q37.3594 48.4844 30.0781 48.4844
Q22.8594 48.4844 18.8281 43.1094
Q14.7969 37.75 14.7969 27.9844
Q14.7969 18.2656 18.8281 12.8906
Q22.8594 7.51562 30.0781 7.51562
Q37.3594 7.51562 41.375 12.8906
Q45.4062 18.2656 45.4062 27.9844
M54.3906 6.78125
Q54.3906 -7.17188 48.1875 -13.9844
Q42 -20.7969 29.2031 -20.7969
Q24.4688 -20.7969 20.2656 -20.0938
Q16.0625 -19.3906 12.1094 -17.9219
L12.1094 -9.1875
Q16.0625 -11.3281 19.9219 -12.3438
Q23.7812 -13.375 27.7812 -13.375
Q36.625 -13.375 41.0156 -8.76562
Q45.4062 -4.15625 45.4062 5.17188
L45.4062 9.625
Q42.625 4.78125 38.2812 2.39062
Q33.9375 0 27.875 0
Q17.8281 0 11.6719 7.65625
Q5.51562 15.3281 5.51562 27.9844
Q5.51562 40.6719 11.6719 48.3281
Q17.8281 56 27.875 56
Q33.9375 56 38.2812 53.6094
Q42.625 51.2188 45.4062 46.3906
L45.4062 54.6875
L54.3906 54.6875
z
" id="BitstreamVeraSans-Roman-67"/>
       <path d="
M41.1094 46.2969
Q39.5938 47.1719 37.8125 47.5781
Q36.0312 48 33.8906 48
Q26.2656 48 22.1875 43.0469
Q18.1094 38.0938 18.1094 28.8125
L18.1094 0
L9.07812 0
L9.07812 54.6875
L18.1094 54.6875
L18.1094 46.1875
Q20.9531 51.1719 25.4844 53.5781
Q30.0312 56 36.5312 56
Q37.4531 56 38.5781 55.875
Q39.7031 55.7656 41.0625 55.5156
z
" id="BitstreamVeraSans-Roman-72"/>
      </defs>
      <g transform="translate(10.884375 61.259375)scale(0.1 -0.1)">
       <use xlink:href="#BitstreamVeraSans-Roman-67"/>
       <use x="63.4765625" xlink:href="#BitstreamVeraSans-Roman-72"/>
       <use x="102.33984375" xlink:href="#BitstreamVeraSans-Roman-65"/>
       <use x="163.86328125" xlink:href="#BitstreamVeraSans-Roman-65"/>
       <use x="225.38671875" xlink:href="#BitstreamVeraSans-Roman-6e"/>
      </g>
     </g>
    </g>
    <g id="ytick_3">
     <g id="line2d_20">
      <g>
       <use style="stroke:#000000;stroke-width:0.5;" x="42.3625" xlink:href="#m728421d6d4" y="26.7"/>
      </g>
     </g>
     <g id="line2d_21">
      <g>
       <use style="stroke:#000000;stroke-width:0.5;" x="268.48125" xlink:href="#mcb0005524f" y="26.7"/>
      </g>
     </g>
     <g id="text_10">
      <!-- red -->
      <defs>
       <path d="
M45.4062 46.3906
L45.4062 75.9844
L54.3906 75.9844
L54.3906 0
L45.4062 0
L45.4062 8.20312
Q42.5781 3.32812 38.25 0.953125
Q33.9375 -1.42188 27.875 -1.42188
Q17.9688 -1.42188 11.7344 6.48438
Q5.51562 14.4062 5.51562 27.2969
Q5.51562 40.1875 11.7344 48.0938
Q17.9688 56 27.875 56
Q33.9375 56 38.25 53.625
Q42.5781 51.2656 45.4062 46.3906
M14.7969 27.2969
Q14.7969 17.3906 18.875 11.75
Q22.9531 6.10938 30.0781 6.10938
Q37.2031 6.10938 41.2969 11.75
Q45.4062 17.3906 45.4062 27.2969
Q45.4062 37.2031 41.2969 42.8438
Q37.2031 48.4844 30.0781 48.4844
Q22.9531 48.4844 18.875 42.8438
Q14.7969 37.2031 14.7969 27.2969" id="BitstreamVeraSans-Roman-64"/>
      </defs>
      <g transform="translate(23.7921875 29.459375)scale(0.1 -0.1)">
       <use xlink:href="#BitstreamVeraSans-Roman-72"/>
       <use x="38.86328125" xlink:href="#BitstreamVeraSans-Roman-65"/>
       <use x="100.38671875" xlink:href="#BitstreamVeraSans-Roman-64"/>
      </g>
     </g>
    </g>
   </g>
  </g>
 </g>
 <defs>
  <clipPath id="p78f12830df">
   <rect height="95.4" width="226.11875" x="42.3625" y="10.8"/>
  </clipPath>
 </defs>
</svg>
